<svg width="24" height="24" viewBox="0 0 24 24" xmlns="http://www.w3.org/2000/svg" fill="currentColor">
  <defs>
    <path id="pd-folder" d="M1.5 1H4.5L6 3.5H10.5A1.5 1.5 0 0 1 12 5V9.5A1.5 1.5 0 0 1 10.5 11H1.5A1.5 1.5 0 0 1 0 9.5V2.5A1.5 1.5 0 0 1 1.5 1Z" />
    <mask id="pd-back" maskUnits="userSpaceOnUse" x="0" y="0" width="24" height="24">
      <rect x="0" y="0" width="24" height="24" fill="#fff" />
      <use href="#pd-folder" transform="translate(6.5 7.5)" fill="#000" stroke="#000" stroke-width="2" />
      <use href="#pd-folder" transform="translate(3 11)" fill="#000" stroke="#000" stroke-width="2" />
    </mask>
    <mask id="pd-mid" maskUnits="userSpaceOnUse" x="0" y="0" width="24" height="24">
      <rect x="0" y="0" width="24" height="24" fill="#fff" />
      <use href="#pd-folder" transform="translate(3 11)" fill="#000" stroke="#000" stroke-width="2" />
    </mask>
  </defs>
  <g transform="translate(12 12) scale(1.15) translate(-12.5 -13.5)">
    <g mask="url(#pd-back)"><use href="#pd-folder" transform="translate(10 4)" /></g>
    <g mask="url(#pd-mid)"><use href="#pd-folder" transform="translate(6.5 7.5)" /></g>
    <use href="#pd-folder" transform="translate(3 11)" />
  </g>
</svg>
